<?xml version="1.0" standalone="no"?>
<!DOCTYPE svg PUBLIC "-//W3C//DTD SVG 20010904//EN"
 "http://www.w3.org/TR/2001/REC-SVG-20010904/DTD/svg10.dtd">
<svg version="1.0" xmlns="http://www.w3.org/2000/svg"
 width="144.000000pt" height="144.000000pt" viewBox="0 0 144.000000 144.000000"
 preserveAspectRatio="xMidYMid meet">
<metadata>
Created by potrace 1.14, written by Peter Selinger 2001-2017
</metadata>
<g transform="translate(0.000000,144.000000) scale(0.100000,-0.100000)"
fill="#000000" stroke="none">
<path d="M441 1417 c-18 -7 -50 -27 -71 -45 l-39 -32 -125 0 -126 0 2 -652 3
-653 255 -1 c232 -1 259 1 297 18 54 25 79 82 70 159 -7 53 -21 81 -105 205
l-53 78 33 34 c88 91 194 120 398 108 60 -3 169 18 217 43 114 57 179 202 133
296 -18 36 -74 75 -107 75 -17 0 -45 20 -86 61 -108 107 -166 138 -297 163
-72 14 -82 19 -119 58 -21 24 -59 54 -82 66 -52 28 -150 37 -198 19z"/>
</g>
</svg>
